<svg width="68" height="72" viewBox="0 0 68 72" fill="none" xmlns="http://www.w3.org/2000/svg">
<rect x="6.77194" y="9" width="55" height="55" rx="3" fill="#4361EE"/>
<path d="M41.0627 29.96C40.4548 28.84 39.5748 27.992 38.4228 27.416C37.3028 26.808 35.9748 26.504 34.4388 26.504C31.7828 26.504 29.6548 27.384 28.0547 29.144C26.4548 30.872 25.6548 33.192 25.6548 36.104C25.6548 39.208 26.4868 41.64 28.1508 43.4C29.8468 45.128 32.1668 45.992 35.1108 45.992C37.1268 45.992 38.8228 45.48 40.1988 44.456C41.6068 43.432 42.6308 41.96 43.2708 40.04H32.8548V33.992H50.7108V41.624C50.1028 43.672 49.0628 45.576 47.5908 47.336C46.1508 49.096 44.3108 50.52 42.0708 51.608C39.8308 52.696 37.3028 53.24 34.4868 53.24C31.1588 53.24 28.1828 52.52 25.5588 51.08C22.9668 49.608 20.9348 47.576 19.4628 44.984C18.0228 42.392 17.3027 39.432 17.3027 36.104C17.3027 32.776 18.0228 29.816 19.4628 27.224C20.9348 24.6 22.9668 22.568 25.5588 21.128C28.1508 19.656 31.1108 18.92 34.4388 18.92C38.4708 18.92 41.8628 19.896 44.6148 21.848C47.3988 23.8 49.2388 26.504 50.1348 29.96H41.0627Z" fill="#F8F9FA"/>
</svg>
